# xmcd
#
# Track frame offsets:
#       182
#       19042
#       45987
#       58867
#       75257
#       90520
#       109892
#       125595
#       142015
#       158685
#
# Disc length: 2432 seconds
#
# Revision: 1
# Processed by: cddbd v1.4PL0 Copyright (c) Steve Scherf et al.
# Submitted via: MusiCat 1.1
#
DISCID=76097e0a
DTITLE=Mississippi Fred Mcdowell - The Train I ride
DYEAR=1993
DGENRE=
TTITLE0=What's the matter with papa's little angel child
TTITLE1=Leevee Camp Blues
TTITLE2=You got to move
TTITLE3=Get right Church
TTITLE4=Big fat Mama
TTITLE5=Unknown Blues
TTITLE6=Good morning little school girl
TTITLE7=Keep you lamp trimmed and bruning
TTITLE8=You ain;t gonna worry my life anymore
TTITLE9=The Train I Ride
EXTD=1993\n\n\nsubmitted by Stamppot
EXTT0=
EXTT1=
EXTT2=
EXTT3=
EXTT4=
EXTT5=
EXTT6=
EXTT7=
EXTT8=
EXTT9=
PLAYORDER=
